<?xml version="1.0" standalone="no"?>
<!DOCTYPE svg PUBLIC "-//W3C//DTD SVG 20010904//EN"
 "http://www.w3.org/TR/2001/REC-SVG-20010904/DTD/svg10.dtd">
<svg version="1.0" xmlns="http://www.w3.org/2000/svg"
 width="1080.000000pt" height="1080.000000pt" viewBox="0 0 1080.000000 1080.000000"
 preserveAspectRatio="xMidYMid meet">

<g transform="translate(0.000000,1080.000000) scale(0.100000,-0.100000)"
fill="#000000" stroke="none">
<path d="M5120 9874 c-855 -76 -1538 -314 -2225 -773 -374 -251 -773 -629
-1048 -994 -294 -390 -526 -833 -682 -1303 -194 -583 -263 -1223 -200 -1862
102 -1026 563 -1993 1297 -2719 183 -181 296 -279 469 -408 647 -483 1320
-756 2154 -871 108 -15 200 -18 535 -18 389 -1 413 1 600 27 549 78 1055 241
1514 489 831 449 1475 1111 1900 1953 429 849 569 1804 406 2770 -146 869
-558 1693 -1159 2318 -130 135 -373 353 -521 468 -158 123 -446 307 -663 423
-286 153 -646 289 -977 370 -428 104 -612 127 -1035 131 -176 1 -340 1 -365
-1z m711 -149 c842 -84 1605 -386 2260 -897 1067 -831 1678 -2086 1679 -3449
0 -583 -127 -1186 -363 -1719 -177 -401 -416 -777 -706 -1113 -99 -115 -379
-390 -491 -484 -268 -222 -542 -399 -865 -558 -240 -118 -380 -174 -630 -255
-731 -236 -1605 -260 -2358 -65 -929 240 -1744 769 -2345 1521 -279 350 -543
831 -693 1263 -88 254 -155 531 -194 796 -125 870 5 1735 380 2510 225 465
496 844 871 1219 694 694 1619 1128 2624 1230 190 19 640 20 831 1z"/>
<path d="M4985 9414 c-131 -26 -126 -24 -123 -52 2 -19 11 -28 33 -34 l30 -7
28 -203 c15 -112 30 -231 34 -265 6 -60 5 -63 -21 -74 -19 -9 -26 -20 -26 -41
l0 -29 53 6 c28 3 81 9 117 13 64 7 65 7 65 37 0 25 -5 31 -30 35 -29 5 -30 7
-42 95 -36 256 -63 473 -63 498 0 28 -7 30 -55 21z"/>
<path d="M5790 9343 c0 -20 8 -33 29 -44 l29 -17 -19 -103 c-11 -57 -29 -160
-42 -229 l-22 -125 -35 -5 c-30 -4 -35 -9 -38 -36 l-3 -30 83 -14 c46 -7 102
-16 126 -20 l42 -7 0 33 c0 27 -5 35 -25 40 -14 3 -25 13 -25 23 0 21 29 171
35 180 2 4 57 -2 122 -14 118 -21 118 -21 121 -51 1 -16 -3 -60 -10 -99 l-13
-70 -37 -3 c-31 -3 -36 -7 -40 -33 -3 -16 -4 -29 -4 -29 8 -3 226 -39 239 -40
29 0 23 54 -8 68 -14 6 -25 19 -25 28 0 15 64 383 75 432 4 16 12 22 34 22 25
0 31 5 36 31 4 17 5 32 3 34 -6 6 -233 42 -240 38 -5 -2 -8 -17 -8 -33 0 -23
5 -31 25 -36 19 -5 25 -13 25 -33 0 -37 -21 -144 -30 -154 -7 -8 -238 28 -248
38 -6 6 19 147 29 167 5 9 21 18 36 20 24 2 28 8 28 33 l0 29 -100 18 c-141
24 -145 24 -145 -9z"/>
<path d="M4592 9341 c-34 -10 -65 -21 -68 -23 -2 -3 0 -17 5 -32 8 -18 18 -26
35 -26 14 0 27 -4 30 -9 3 -5 31 -121 61 -257 l55 -249 -25 -20 c-24 -20 -33
-59 -17 -69 5 -3 58 5 118 18 92 19 109 25 112 43 3 23 -14 40 -47 45 -27 3
-19 -25 -111 401 -49 224 -37 209 -148 178z"/>
<path d="M4275 9248 c-23 -18 -26 -26 -22 -55 8 -47 24 -63 61 -63 48 0 76 25
76 66 0 67 -61 95 -115 52z"/>
<path d="M5333 9219 c-68 -20 -109 -112 -79 -182 18 -44 41 -59 142 -95 65
-24 81 -34 89 -56 15 -42 -20 -66 -95 -66 -60 0 -70 7 -70 51 0 17 -6 20 -37
17 l-38 -3 0 -65 0 -64 40 -9 c22 -5 80 -7 128 -4 78 4 94 8 130 34 51 35 67
64 67 124 0 38 -5 50 -32 75 -35 33 -95 64 -122 64 -32 0 -96 40 -96 59 0 35
28 51 85 51 50 0 54 -2 64 -30 10 -31 19 -34 59 -24 21 6 23 11 20 63 -3 53
-4 56 -33 62 -45 10 -186 8 -222 -2z"/>
<path d="M4348 9050 c-42 -14 -80 -28 -83 -32 -4 -4 -5 -19 -1 -33 5 -20 12
-25 40 -25 37 0 31 12 92 -190 32 -107 33 -116 17 -127 -9 -7 -21 -13 -26 -13
-9 0 0 -40 13 -53 4 -5 55 7 114 24 92 29 106 36 106 55 0 26 -22 46 -41 39
-25 -9 -36 9 -73 130 -21 66 -47 149 -59 185 l-22 65 -77 -25z"/>
<path d="M3698 9019 c-43 -22 -78 -42 -78 -45 0 -25 24 -44 56 -44 24 0 37 -5
41 -17 5 -16 67 -153 145 -323 63 -137 63 -138 38 -165 -19 -20 -20 -26 -10
-47 7 -12 14 -24 15 -26 1 -1 50 20 108 48 104 49 106 51 95 75 -8 19 -19 25
-43 25 -29 0 -33 5 -56 57 -13 32 -25 61 -27 65 -2 4 12 15 32 24 l35 17 69
-59 c131 -112 114 -106 195 -68 53 24 56 26 45 50 -9 18 -19 24 -45 24 -30 0
-85 36 -196 130 -13 11 12 143 34 172 18 26 19 78 1 78 -4 0 -48 -21 -98 -46
-88 -45 -92 -48 -82 -70 8 -16 20 -24 36 -24 22 0 24 -3 18 -31 -3 -17 -6 -42
-6 -55 0 -31 -58 -70 -76 -51 -7 6 -45 84 -85 172 -40 88 -75 163 -78 167 -3
3 -41 -11 -83 -33z"/>
<path d="M6524 9034 c-5 -21 -2 -31 16 -44 l24 -18 -49 -123 c-26 -68 -50
-142 -52 -165 -7 -60 18 -107 70 -130 44 -20 134 -25 176 -10 23 8 24 7 18
-27 l-5 -35 71 -26 c55 -20 73 -23 79 -14 13 21 9 55 -7 62 -25 9 -18 38 50
212 36 92 64 171 62 177 -3 11 -123 57 -149 57 -11 0 -20 -10 -24 -26 -5 -21
-2 -31 16 -44 l22 -17 -49 -124 c-47 -121 -50 -124 -84 -133 -40 -10 -74 -4
-103 17 -31 22 -22 71 39 223 31 76 54 145 53 152 -3 15 -117 62 -149 62 -12
0 -21 -10 -25 -26z"/>
<path d="M7226 8975 c-4 -17 -1 -31 9 -42 9 -8 13 -23 10 -32 -3 -9 -71 -124
-151 -257 -79 -132 -144 -245 -144 -250 0 -16 108 -94 170 -122 110 -51 194
-40 267 37 94 97 128 225 81 305 -29 50 -86 80 -150 80 -26 0 -48 2 -48 4 0 3
30 54 66 114 37 59 65 110 63 112 -12 12 -141 76 -153 76 -8 0 -17 -11 -20
-25z m98 -356 c32 -15 50 -59 41 -101 -15 -72 -93 -169 -146 -182 -28 -6 -129
37 -129 56 0 5 30 61 68 123 66 113 68 114 104 115 20 0 48 -5 62 -11z"/>
<path d="M3512 8670 c-114 -53 -162 -108 -162 -187 0 -93 74 -144 176 -122 27
5 72 13 101 16 45 5 52 3 62 -16 16 -28 -8 -72 -52 -100 -43 -26 -63 -27 -79
-1 -16 24 -26 25 -56 2 l-22 -17 27 -53 c26 -49 30 -53 58 -47 74 14 189 96
220 156 21 40 19 108 -5 147 -33 54 -92 65 -202 36 -81 -21 -109 -16 -121 19
-11 34 6 57 60 82 32 16 36 16 54 0 16 -15 23 -16 49 -5 16 7 30 17 30 22 0
18 -52 98 -63 98 -7 -1 -40 -14 -75 -30z"/>
<path d="M5109 8326 c-228 -29 -479 -89 -678 -162 -241 -88 -624 -304 -816
-459 -110 -89 -274 -246 -363 -349 -330 -378 -539 -777 -658 -1260 -19 -77
-34 -147 -34 -156 0 -20 -170 -105 1795 892 248 126 595 301 772 390 l323 162
182 -92 c101 -50 377 -190 613 -310 237 -120 646 -328 910 -461 264 -134 634
-322 823 -418 189 -96 345 -173 348 -171 15 15 -65 323 -130 500 -99 272 -247
538 -439 788 -96 125 -368 399 -487 492 -216 167 -484 322 -730 421 -216 88
-410 140 -675 183 -138 22 -610 28 -756 10z"/>
<path d="M1830 6670 c-13 -41 -27 -81 -33 -87 -6 -9 -37 -13 -90 -13 l-80 0
66 -47 c36 -27 66 -55 67 -64 0 -9 -11 -47 -25 -84 -13 -38 -23 -70 -22 -71 1
-1 22 13 47 32 91 70 92 70 158 23 31 -23 62 -46 69 -51 7 -5 1 26 -13 71 -14
45 -22 86 -19 92 4 5 34 30 68 55 l61 44 -39 1 c-74 2 -126 7 -133 14 -4 3
-19 41 -33 83 l-26 77 -23 -75z"/>
<path d="M8931 6668 c-13 -40 -28 -79 -33 -85 -7 -9 -38 -13 -86 -13 l-76 0
34 -30 c19 -17 47 -38 63 -47 32 -21 33 -29 7 -112 -11 -35 -18 -66 -15 -69 3
-3 15 4 28 15 12 11 41 33 64 48 l43 27 62 -46 c72 -54 78 -49 48 38 -11 33
-20 63 -20 67 0 5 29 30 65 57 l64 49 -55 7 c-30 3 -65 4 -79 0 -27 -7 -40 13
-69 109 -10 31 -19 57 -20 57 -1 0 -12 -33 -25 -72z"/>
<path d="M5280 5914 c-548 -24 -974 -88 -1494 -225 -283 -74 -348 -122 -370
-273 -6 -46 -28 -48 224 27 552 164 1119 252 1710 264 279 5 603 -10 790 -37
36 -5 124 -17 195 -26 290 -36 713 -133 1030 -235 50 -16 93 -29 98 -29 12 0
8 89 -7 123 -35 81 -115 125 -343 186 -430 115 -776 177 -1146 206 -199 15
-557 25 -687 19z"/>
<path d="M2523 5378 c8 -374 42 -583 148 -908 40 -124 59 -163 59 -125 1 11
14 53 30 94 l29 75 -39 33 c-71 61 -77 138 -15 210 l35 41 0 366 0 366 -120
60 c-66 33 -123 60 -126 60 -4 0 -4 -123 -1 -272z"/>
<path d="M7936 5432 l-430 -218 3 -289 c1 -160 -1 -339 -5 -399 -6 -100 -9
-111 -35 -141 -164 -187 -958 -308 -2014 -308 -1109 0 -1919 135 -2046 339
-20 34 -21 46 -22 414 0 262 -4 383 -11 389 -14 11 -483 251 -491 251 -3 0 -5
-152 -5 -339 l0 -338 34 -36 c62 -66 56 -150 -14 -210 l-39 -33 24 -66 c37
-103 55 -207 68 -413 l13 -190 57 -86 c201 -300 481 -576 800 -789 636 -423
1377 -577 2147 -445 452 77 919 290 1309 596 219 173 456 431 618 674 344 515
528 1209 474 1787 l-6 67 -429 -217z"/>
<path d="M1718 5443 l-24 -78 -89 -5 -89 -5 67 -45 c36 -25 67 -50 67 -55 0
-6 -9 -42 -19 -80 -11 -38 -18 -72 -16 -74 3 -2 28 14 57 36 29 21 58 42 64
46 5 3 39 -14 74 -39 35 -24 65 -42 67 -41 1 2 -6 36 -17 75 -11 39 -20 74
-20 76 0 2 30 26 66 53 l66 48 -83 5 -83 5 -27 73 c-15 41 -29 76 -32 78 -2 2
-15 -31 -29 -73z"/>
<path d="M9039 5453 c-12 -38 -26 -74 -32 -80 -6 -9 -37 -13 -90 -13 l-80 0
59 -46 c32 -25 63 -49 67 -53 4 -4 -1 -41 -12 -81 -12 -41 -19 -75 -18 -77 2
-1 32 17 67 41 35 25 69 42 74 39 6 -4 35 -25 64 -46 29 -22 55 -37 58 -34 4
3 -3 34 -15 68 -12 35 -21 68 -21 75 0 7 30 34 66 61 l66 48 -83 3 c-51 2 -86
8 -91 15 -4 7 -17 42 -28 80 -11 37 -22 67 -24 67 -3 0 -14 -30 -27 -67z"/>
<path d="M4925 4674 c-33 -2 -179 -11 -325 -19 -566 -32 -967 -107 -978 -181
-14 -95 516 -176 1346 -205 339 -12 960 -7 1247 11 238 15 655 57 756 76 194
36 299 76 299 114 0 32 -109 77 -250 104 -362 70 -758 96 -1485 100 -302 2
-577 2 -610 0z"/>
<path d="M2841 3057 c-53 -137 -57 -144 -119 -203 -46 -43 -63 -66 -59 -78 4
-9 10 -16 15 -16 4 0 37 24 73 54 63 53 70 56 195 85 194 47 191 45 161 70
-10 8 -44 3 -133 -18 -65 -17 -122 -26 -126 -23 -4 4 8 43 28 87 51 118 60
151 44 170 -7 8 -15 15 -19 15 -3 0 -30 -64 -60 -143z"/>
<path d="M7771 2955 c-50 -52 -91 -98 -91 -104 0 -5 73 -80 163 -166 l162
-157 98 102 c85 88 97 105 84 117 -12 12 -25 2 -95 -69 l-81 -83 -61 60 -60
60 70 73 c73 76 79 86 56 95 -14 6 -36 -13 -104 -87 -52 -56 -61 -55 -127 15
l-48 51 78 78 c53 54 76 83 72 94 -4 9 -10 16 -15 16 -5 0 -50 -43 -101 -95z"/>
<path d="M3061 2855 c-53 -17 -123 -82 -151 -142 -51 -108 0 -243 113 -297 48
-22 138 -21 185 3 166 85 202 288 70 392 -71 57 -134 70 -217 44z m156 -52
c80 -37 115 -150 74 -231 -28 -54 -102 -119 -145 -128 -106 -19 -206 63 -206
169 0 144 154 249 277 190z"/>
<path d="M7565 2742 c-22 -11 -68 -43 -102 -71 -58 -48 -62 -54 -49 -72 7 -11
73 -91 145 -179 117 -141 135 -159 152 -150 10 6 19 15 19 21 0 5 -25 40 -55
76 -30 37 -55 72 -54 77 0 6 14 22 31 35 34 27 43 26 166 -31 60 -28 65 -29
88 -13 13 8 24 17 24 19 0 1 -45 22 -101 46 -89 39 -100 46 -94 64 16 48 15
83 -2 115 -36 69 -102 94 -168 63z m84 -47 c28 -14 51 -58 51 -98 0 -10 -24
-44 -54 -73 l-54 -54 -59 65 c-32 37 -60 71 -62 76 -4 11 13 26 78 70 51 33
61 35 100 14z"/>
<path d="M3380 2490 c-83 -125 -94 -147 -98 -194 -4 -45 0 -59 22 -93 35 -52
91 -83 151 -83 82 0 113 30 262 260 38 58 41 66 26 77 -22 17 -28 11 -108
-110 -112 -168 -155 -202 -221 -177 -37 14 -73 48 -85 79 -15 37 6 84 97 220
46 68 84 130 84 136 0 10 -20 25 -34 25 -2 0 -45 -63 -96 -140z"/>
<path d="M7238 2506 c-59 -39 -110 -74 -113 -78 -4 -3 50 -92 119 -198 88
-132 130 -189 139 -183 99 61 217 146 217 156 0 24 -12 26 -39 8 -14 -10 -54
-37 -89 -60 -34 -24 -69 -40 -77 -37 -11 4 -46 52 -88 123 -5 7 23 32 78 67
82 54 96 68 75 81 -10 6 -30 -4 -108 -57 -31 -21 -61 -38 -68 -38 -13 0 -94
110 -94 127 0 4 41 35 91 67 57 37 89 65 87 74 -2 9 -7 16 -13 18 -5 1 -58
-30 -117 -70z"/>
<path d="M3783 2357 c-15 -30 -62 -120 -103 -201 -73 -142 -74 -147 -55 -161
21 -16 14 -25 99 128 l15 28 41 -21 40 -20 0 -110 c0 -101 2 -110 21 -120 11
-7 22 -10 24 -8 2 2 7 50 12 108 l8 105 33 2 c48 4 88 36 107 87 32 83 -6 137
-139 202 -38 19 -70 34 -72 34 -1 0 -15 -24 -31 -53z m105 -26 c96 -49 118
-106 69 -174 -20 -26 -26 -29 -67 -24 -55 5 -130 37 -130 55 0 13 56 129 72
150 13 15 12 16 56 -7z"/>
<path d="M7038 2379 c-15 -9 -13 -17 22 -91 22 -45 40 -89 40 -97 0 -15 -180
-112 -205 -111 -6 0 -30 38 -53 85 -23 47 -48 85 -54 85 -43 -1 -38 -18 62
-215 55 -109 103 -202 108 -207 4 -4 16 -2 26 5 17 13 17 16 -12 73 -16 32
-37 76 -45 97 l-16 37 106 50 c69 33 110 47 117 41 6 -5 29 -46 51 -90 39 -81
47 -89 74 -72 11 7 -6 50 -89 215 -56 113 -105 206 -109 206 -3 0 -14 -5 -23
-11z"/>
<path d="M4257 2176 c-4 -10 9 -19 47 -31 90 -28 89 -12 14 -232 -37 -108 -67
-198 -65 -199 1 -1 13 -4 26 -6 22 -3 27 7 87 184 34 104 65 192 68 197 4 5
33 1 69 -10 34 -10 63 -19 65 -19 1 0 2 8 2 19 0 15 -27 27 -143 65 -158 51
-163 52 -170 32z"/>
<path d="M6400 2113 c-63 -19 -117 -37 -119 -39 -4 -4 17 -83 64 -234 18 -58
38 -126 46 -152 7 -27 19 -48 26 -48 21 0 263 73 263 79 -1 29 -20 29 -115 1
-54 -17 -104 -30 -111 -30 -11 0 -36 67 -50 138 -6 27 -5 28 86 52 111 30 118
34 102 53 -11 13 -25 11 -104 -14 -50 -15 -95 -26 -99 -23 -12 7 -51 134 -46
148 3 7 51 26 106 42 78 23 101 33 101 47 0 23 -15 21 -150 -20z"/>
<path d="M4577 1865 c-70 -107 -127 -199 -127 -204 0 -7 23 -21 35 -21 2 0 20
25 40 55 30 44 41 54 58 50 113 -23 170 -40 174 -52 3 -7 8 -37 12 -66 5 -44
9 -52 29 -55 28 -4 28 -15 -3 226 -35 279 -31 262 -64 262 -25 0 -40 -19 -154
-195z m162 -4 c6 -57 9 -106 6 -109 -7 -8 -155 29 -155 38 0 4 9 19 20 33 11
14 20 28 20 31 0 16 84 126 90 119 4 -4 13 -55 19 -112z"/>
<path d="M6170 2029 c0 -12 12 -89 26 -171 15 -82 24 -152 20 -155 -4 -4 -72
62 -152 145 -123 128 -150 152 -175 152 -32 0 -32 1 -19 -56 5 -23 23 -121 40
-219 16 -98 31 -180 33 -181 2 -2 13 -1 25 3 16 4 21 11 17 27 -14 62 -53 331
-49 336 3 3 17 -8 31 -25 15 -16 82 -89 150 -161 105 -112 127 -130 148 -126
14 2 25 7 25 11 0 3 -11 71 -25 151 -14 80 -30 178 -37 218 -11 65 -14 72 -35
72 -17 0 -23 -6 -23 -21z"/>
<path d="M5035 1989 c-40 -11 -93 -64 -116 -114 -25 -55 -25 -175 0 -230 33
-75 104 -115 199 -115 46 0 74 11 109 43 l22 20 6 -29 c11 -49 15 -56 28 -52
11 4 46 233 36 243 -3 2 -46 7 -97 11 -79 6 -92 5 -92 -8 0 -12 17 -17 66 -23
l66 -7 -5 -35 c-13 -79 -87 -131 -170 -120 -47 6 -83 30 -115 78 -21 30 -23
43 -20 114 5 92 21 128 76 165 70 49 189 23 222 -48 12 -24 21 -32 43 -32 25
0 28 3 22 23 -28 97 -159 152 -280 116z"/>
<path d="M5738 1983 c-2 -5 5 -108 15 -230 20 -222 20 -223 43 -223 29 0 29 2
9 229 -20 223 -22 231 -45 231 -10 0 -20 -3 -22 -7z"/>
<path d="M5403 1749 c4 -128 8 -233 9 -235 2 -1 62 1 133 4 106 6 130 10 130
22 0 12 -18 15 -105 15 l-105 0 -7 50 c-3 28 -7 123 -7 213 l-1 162 -27 0 -26
0 6 -231z"/>
</g>
</svg>
